<mxfile host="app.diagrams.net" modified="2023-10-02T12:15:56.806Z" agent="Mozilla/5.0 (Macintosh; Intel Mac OS X 10_15_7) AppleWebKit/537.36 (KHTML, like Gecko) Chrome/117.0.0.0 Safari/537.36" version="22.0.0" etag="-3YKRMHvmOOsb3AIBkX4" type="github">
  <diagram name="페이지-1" id="2HYhzDpjzZtuKdy001nS">
    <mxGraphModel>
      <root>
        <mxCell id="0" />
        <mxCell id="1" parent="0" />
      </root>
    </mxGraphModel>
  </diagram>
</mxfile>
